<?xml version="1.0" encoding="iso-8859-1"?>
<!-- Generator: Adobe Illustrator 19.0.0, SVG Export Plug-In . SVG Version: 6.00 Build 0)  -->
<svg version="1.1" id="Layer_1" xmlns="http://www.w3.org/2000/svg" xmlns:xlink="http://www.w3.org/1999/xlink" x="0px" y="0px"
	 viewBox="0 0 512 512" style="enable-background:new 0 0 512 512;" xml:space="preserve">
<path style="fill:#2CDDE7;" d="M511.344,274.266C511.77,268.231,512,262.143,512,256C512,114.615,397.385,0,256,0S0,114.615,0,256
	c0,117.769,79.53,216.949,187.809,246.801L511.344,274.266z"/>
<path style="fill:#24B2BA;" d="M511.344,274.266L314.991,77.913L119.096,434.087l68.714,68.714C209.522,508.787,232.385,512,256,512
	C391.243,512,501.976,407.125,511.344,274.266z"/>
<polygon style="fill:#FFFFFF;" points="278.328,333.913 255.711,77.913 119.096,77.913 119.096,311.652 "/>
<polygon style="fill:#E8E6E6;" points="392.904,311.652 392.904,155.826 337.252,133.565 314.991,77.913 255.711,77.913 
	256.067,333.913 "/>
<polygon style="fill:#FFFFFF;" points="314.991,155.826 314.991,77.913 392.904,155.826 "/>
<rect x="119.096" y="311.652" style="fill:#135D61;" width="273.809" height="122.435"/>
<g>
	<path style="fill:#FFFFFF;" d="M190.98,399.362l-0.076-34.434l-12.714,29.136h-8.779l-12.714-29.136v34.434h-12.033v-53.051h14.757
		l14.379,31.559l14.378-31.559h14.682v53.051H190.98z"/>
	<path style="fill:#FFFFFF;" d="M238.514,346.387c13.547,0,21.341,6.658,21.341,18.465c0,12.41-7.795,19.601-21.341,19.601h-9.611
		v14.909h-13.471v-52.975L238.514,346.387L238.514,346.387z M228.903,373.859h8.93c5.904,0,9.308-2.952,9.308-8.553
		c0-5.525-3.406-8.324-9.308-8.324h-8.93V373.859z"/>
	<path style="fill:#FFFFFF;" d="M282.261,356.982v10.519h25.276v10.595h-25.276v10.672h28.835v10.595h-42.305v-52.975h41.473v10.595
		h-28.003V356.982z"/>
	<path style="fill:#FFFFFF;" d="M368.541,372.42v20.661c-5.675,4.011-14.606,6.888-22.023,6.888
		c-16.12,0-28.305-11.655-28.305-27.094c0-15.363,12.487-26.941,29.212-26.941c7.87,0,16.196,3.027,21.644,7.87l-7.568,9.158
		c-3.86-3.557-9.233-5.752-14.152-5.752c-8.703,0-15.362,6.811-15.362,15.665c0,9.007,6.735,15.817,15.514,15.817
		c2.725,0,6.205-0.984,9.384-2.574V372.42H368.541z"/>
</g>
<g>
</g>
<g>
</g>
<g>
</g>
<g>
</g>
<g>
</g>
<g>
</g>
<g>
</g>
<g>
</g>
<g>
</g>
<g>
</g>
<g>
</g>
<g>
</g>
<g>
</g>
<g>
</g>
<g>
</g>
</svg>
