<?xml version="1.0" encoding="iso-8859-1"?>
<!-- Generator: Adobe Illustrator 19.0.0, SVG Export Plug-In . SVG Version: 6.00 Build 0)  -->
<svg version="1.1" id="Layer_1" xmlns="http://www.w3.org/2000/svg" xmlns:xlink="http://www.w3.org/1999/xlink" x="0px" y="0px"
	 viewBox="0 0 512 512" style="enable-background:new 0 0 512 512;" xml:space="preserve">
<path style="fill:#24B2BA;" d="M511.344,274.266C511.77,268.231,512,262.143,512,256C512,114.615,397.385,0,256,0S0,114.615,0,256
	c0,117.769,79.53,216.949,187.809,246.801L511.344,274.266z"/>
<path style="fill:#1B888E;" d="M511.344,274.266L314.991,77.913L119.096,434.087l68.714,68.714C209.522,508.787,232.385,512,256,512
	C391.243,512,501.976,407.125,511.344,274.266z"/>
<polygon style="fill:#FFFFFF;" points="278.328,333.913 255.711,77.913 119.096,77.913 119.096,311.652 "/>
<polygon style="fill:#E8E6E6;" points="392.904,311.652 392.904,155.826 337.252,133.565 314.991,77.913 255.711,77.913 
	256.067,333.913 "/>
<polygon style="fill:#FFFFFF;" points="314.991,155.826 314.991,77.913 392.904,155.826 "/>
<rect x="119.096" y="311.652" style="fill:#B3DA73;" width="273.809" height="122.435"/>
<g>
	<path style="fill:#FFFFFF;" d="M188.068,384.453h-0.378h-10.217v14.909h-13.471v-52.975h23.687
		c14.001,0,22.023,6.658,22.023,18.465c0,8.097-3.406,13.925-9.611,17.028l11.125,17.481h-15.287L188.068,384.453z M187.689,373.859
		c5.828,0,9.233-2.952,9.233-8.553c0-5.525-3.405-8.324-9.233-8.324h-10.217v16.877H187.689z"/>
	<path style="fill:#FFFFFF;" d="M232.724,389.6l-3.859,9.763h-13.85l22.855-52.975h13.848l22.327,52.975h-14.379l-3.783-9.763
		H232.724z M244.38,359.781l-7.72,19.601h15.288L244.38,359.781z"/>
	<path style="fill:#FFFFFF;" d="M322.485,399.362l-9.838-36.629l-9.99,36.629h-13.926l-17.33-52.975h14.379l10.368,38.974
		l10.141-38.974h13.167l10.368,38.974l10.217-38.974h13.774l-17.483,52.975H322.485z"/>
</g>
<g>
</g>
<g>
</g>
<g>
</g>
<g>
</g>
<g>
</g>
<g>
</g>
<g>
</g>
<g>
</g>
<g>
</g>
<g>
</g>
<g>
</g>
<g>
</g>
<g>
</g>
<g>
</g>
<g>
</g>
</svg>
