<svg width="480" height="240" xmlns="http://www.w3.org/2000/svg" xml:space="preserve" enable-background="new 0 0 124 33" version="1.1">

 <g>
  <title>Layer 1</title>
  <g stroke="null" id="svg_11">
   <path stroke="null" id="svg_1" d="m183.69316,89.8629l-24.71314,0c-1.69115,0 -3.12934,1.22861 -3.39313,2.89808l-9.99511,63.37102c-0.19875,1.25029 0.76969,2.37772 2.03805,2.37772l11.79828,0c1.69115,0 3.12934,-1.22861 3.39313,-2.90169l2.69572,-17.09214c0.26018,-1.67308 1.70199,-2.90169 3.38952,-2.90169l7.82336,0c16.27909,0 25.67435,-7.87756 28.12796,-23.48815c1.10575,-6.82963 0.04698,-12.19577 -3.15103,-15.95387c-3.51238,-4.12669 -9.74216,-6.30928 -18.0136,-6.30928zm2.8511,23.14486c-1.35147,8.86768 -8.1269,8.86768 -14.67828,8.86768l-3.72919,0l2.61622,-16.56095c0.15538,-1.00096 1.02264,-1.73812 2.03443,-1.73812l1.70921,0c4.46275,0 8.67255,0 10.84791,2.54395c1.29727,1.5177 1.69476,3.77256 1.1997,6.88745z" fill="#253B80"/>
   <path stroke="null" id="svg_2" d="m257.56519,112.72229l-11.83441,0c-1.00818,0 -1.87905,0.73717 -2.03443,1.73812l-0.52397,3.31002l-0.82751,-1.1997c-2.56201,-3.71835 -8.27505,-4.96142 -13.97725,-4.96142c-13.07748,0 -24.24699,9.90477 -26.42236,23.79891c-1.13104,6.93081 0.47699,13.55808 4.40854,18.17982c3.60633,4.24955 8.7665,6.02019 14.90594,6.02019c10.53714,0 16.38027,-6.77543 16.38027,-6.77543l-0.52758,3.28834c-0.19875,1.25752 0.76969,2.38495 2.03082,2.38495l10.66,0c1.69476,0 3.12573,-1.22861 3.39313,-2.90169l6.396,-40.5044c0.20236,-1.24668 -0.76246,-2.37772 -2.02721,-2.37772zm-16.49591,23.03284c-1.14189,6.76097 -6.50802,11.2996 -13.35211,11.2996c-3.4365,0 -6.1828,-1.10214 -7.94622,-3.19077c-1.74896,-2.07418 -2.41386,-5.02646 -1.85737,-8.3148c1.066,-6.70316 6.52248,-11.38994 13.26177,-11.38994c3.36061,0 6.09246,1.11659 7.89202,3.2233c1.80317,2.12839 2.51865,5.09873 2.00191,8.37262z" fill="#253B80"/>
   <path stroke="null" id="svg_3" d="m320.59292,112.72229l-11.89223,0c-1.13466,0 -2.20066,0.56372 -2.84387,1.50685l-16.40195,24.16027l-6.95249,-23.21713c-0.43724,-1.45265 -1.77787,-2.44999 -3.29557,-2.44999l-11.68626,0c-1.42013,0 -2.40663,1.38761 -1.95494,2.72462l13.09916,38.44106l-12.31502,17.38484c-0.96843,1.36954 0.00723,3.2522 1.68031,3.2522l11.87777,0c1.12743,0 2.18259,-0.54926 2.82219,-1.47433l39.55404,-57.09426c0.94675,-1.36593 -0.02529,-3.23414 -1.69115,-3.23414z" fill="#253B80"/>
   <path stroke="null" id="svg_4" d="m359.96628,89.8629l-24.71676,0c-1.68753,0 -3.12573,1.22861 -3.38952,2.89808l-9.99511,63.37102c-0.19875,1.25029 0.76969,2.37772 2.03082,2.37772l12.6836,0c1.17802,0 2.1862,-0.86003 2.3705,-2.03082l2.83665,-17.96301c0.26018,-1.67308 1.70199,-2.90169 3.38952,-2.90169l7.81975,0c16.28271,0 25.67435,-7.87756 28.13157,-23.48815c1.10936,-6.82963 0.04336,-12.19577 -3.15464,-15.95387c-3.50877,-4.12669 -9.73493,-6.30928 -18.00637,-6.30928zm2.8511,23.14486c-1.34786,8.86768 -8.12328,8.86768 -14.67828,8.86768l-3.72558,0l2.61983,-16.56095c0.15538,-1.00096 1.01541,-1.73812 2.03082,-1.73812l1.70921,0c4.45913,0 8.67255,0 10.84791,2.54395c1.29727,1.5177 1.69115,3.77256 1.19609,6.88745z" fill="#179BD7"/>
   <path stroke="null" id="svg_5" d="m433.83469,112.72229l-11.82718,0c-1.01541,0 -1.87905,0.73717 -2.03082,1.73812l-0.52397,3.31002l-0.83112,-1.1997c-2.56201,-3.71835 -8.27144,-4.96142 -13.97364,-4.96142c-13.07748,0 -24.24338,9.90477 -26.41874,23.79891c-1.12743,6.93081 0.47338,13.55808 4.40493,18.17982c3.61356,4.24955 8.7665,6.02019 14.90594,6.02019c10.53714,0 16.38027,-6.77543 16.38027,-6.77543l-0.52758,3.28834c-0.19875,1.25752 0.76969,2.38495 2.03805,2.38495l10.65639,0c1.68753,0 3.12573,-1.22861 3.38952,-2.90169l6.39962,-40.5044c0.19513,-1.24668 -0.7733,-2.37772 -2.04166,-2.37772zm-16.49591,23.03284c-1.13466,6.76097 -6.50802,11.2996 -13.35211,11.2996c-3.42927,0 -6.1828,-1.10214 -7.94622,-3.19077c-1.74896,-2.07418 -2.40663,-5.02646 -1.85737,-8.3148c1.07323,-6.70316 6.52248,-11.38994 13.26177,-11.38994c3.36061,0 6.09246,1.11659 7.89202,3.2233c1.81039,2.12839 2.52588,5.09873 2.00191,8.37262z" fill="#179BD7"/>
   <path stroke="null" id="svg_6" d="m447.78665,91.60102l-10.14327,64.53097c-0.19875,1.25029 0.76969,2.37772 2.03082,2.37772l10.19747,0c1.69476,0 3.13296,-1.22861 3.39313,-2.90169l10.00234,-63.3674c0.19875,-1.25029 -0.76969,-2.38134 -2.03082,-2.38134l-11.41885,0c-1.00818,0.00361 -1.87544,0.74078 -2.03082,1.74174z" fill="#179BD7"/>
   <path stroke="null" id="svg_7" d="m42.96303,170.82473l1.88989,-12.00425l-4.2098,-0.09757l-20.10224,0l13.97003,-88.57922c0.04336,-0.2674 0.18429,-0.51674 0.39026,-0.6938c0.20597,-0.17706 0.46976,-0.27463 0.74439,-0.27463l33.8952,0c11.25263,0 19.01817,2.34159 23.07259,6.96333c1.90073,2.16814 3.11128,4.43384 3.69667,6.9272c0.61431,2.61622 0.62515,5.74195 0.02529,9.55426l-0.04336,0.27824l0,2.44277l1.90073,1.07684c1.60081,0.84919 2.87278,1.82123 3.84844,2.93421c1.6261,1.85376 2.67765,4.2098 3.12212,7.00308c0.45892,2.87278 0.30715,6.29121 -0.44447,10.16133c-0.86725,4.45191 -2.26932,8.32926 -4.16282,11.50196c-1.74174,2.92337 -3.96046,5.34807 -6.59475,7.22712c-2.51504,1.7851 -5.50345,3.14018 -8.88213,4.00744c-3.27389,0.8528 -7.00669,1.28281 -11.10086,1.28281l-2.6379,0c-1.88628,0 -3.71835,0.67935 -5.15655,1.89712c-1.44181,1.24306 -2.39579,2.94144 -2.68849,4.79881l-0.19875,1.08045l-3.33893,21.1574l-0.15177,0.77692c-0.03975,0.24572 -0.10841,0.36858 -0.20959,0.4517c-0.09034,0.07588 -0.22043,0.12647 -0.3469,0.12647l-16.28632,0z" fill="#253B80"/>
   <path stroke="null" id="svg_8" d="m99.99225,93.18015l0,0l0,0c-0.10118,0.64683 -0.21681,1.30811 -0.3469,1.98746c-4.46997,22.94973 -19.76256,30.87788 -39.29386,30.87788l-9.94452,0c-2.38856,0 -4.40132,1.73451 -4.77351,4.09055l0,0l0,0l-5.09151,32.29078l-1.44181,9.15315c-0.24211,1.5466 0.95037,2.94144 2.51142,2.94144l17.63779,0c2.08864,0 3.8629,-1.5177 4.19173,-3.57743l0.17345,-0.89616l3.32086,-21.07429l0.2132,-1.15634c0.32522,-2.06696 2.10309,-3.58465 4.19173,-3.58465l2.6379,0c17.08853,0 30.46593,-6.93804 34.3758,-27.01498c1.63333,-8.38707 0.78776,-15.39016 -3.53406,-20.31544c-1.30811,-1.48517 -2.9306,-2.7174 -4.82772,-3.72197z" fill="#179BD7"/>
   <path stroke="null" id="svg_9" d="m95.3163,91.31555c-0.68296,-0.19875 -1.38761,-0.37942 -2.11032,-0.54203c-0.72633,-0.159 -1.47072,-0.29993 -2.23679,-0.42279c-2.68126,-0.43363 -5.61909,-0.6396 -8.7665,-0.6396l-26.5669,0c-0.65405,0 -1.27559,0.14816 -1.83208,0.41556c-1.225,0.58901 -2.13561,1.74896 -2.35604,3.16909l-5.65161,35.79593l-0.16261,1.04432c0.3722,-2.35604 2.38495,-4.09055 4.77351,-4.09055l9.94452,0c19.5313,0 34.82389,-7.93177 39.29386,-30.87788c0.1337,-0.67935 0.24572,-1.34063 0.3469,-1.98746c-1.13104,-0.59985 -2.35604,-1.11298 -3.67499,-1.55022c-0.32522,-0.10841 -0.66128,-0.2132 -1.00096,-0.31438z" fill="#222D65"/>
   <path stroke="null" id="svg_10" d="m51.44767,93.29578c0.22043,-1.42013 1.13104,-2.58008 2.35604,-3.16548c0.5601,-0.2674 1.17802,-0.41556 1.83208,-0.41556l26.5669,0c3.14741,0 6.08524,0.20597 8.7665,0.6396c0.76607,0.12286 1.51047,0.26379 2.23679,0.42279c0.72271,0.16261 1.42736,0.34329 2.11032,0.54203c0.33967,0.10118 0.67574,0.20597 1.00457,0.31077c1.31895,0.43724 2.54395,0.95398 3.67499,1.55022c1.32979,-8.48103 -0.01084,-14.2555 -4.59645,-19.48432c-5.05537,-5.7564 -14.17961,-8.22085 -25.85503,-8.22085l-33.8952,0c-2.38495,0 -4.41938,1.73451 -4.78797,4.09416l-14.11818,89.48984c-0.27824,1.77064 1.08768,3.36784 2.87278,3.36784l20.92613,0l5.25412,-33.3351l5.65161,-35.79593z" fill="#253B80"/>
  </g>
 </g>
</svg>