<svg width="480" height="240" xmlns="http://www.w3.org/2000/svg">

 <title>Cloudflare logo</title>
 <g>
  <title>Layer 1</title>
  <g stroke="null" id="svg_6">
   <path stroke="null" id="svg_1" fill="#fff" d="m419.84502,96.90262l-22.88935,-5.3136l-4.08738,-1.63495l-105.04578,0.81748l0,50.68357l132.02252,0.40874l0,-44.96123z" class="a"/>
   <path stroke="null" id="svg_2" fill="#f48120" d="m381.01487,132.8716a11.67136,11.67136 0 0 0 -1.22622,-10.6272a12.64751,12.64751 0 0 0 -8.58351,-4.49612l-71.12049,-0.81748c-0.40874,0 -0.81748,-0.40874 -1.22622,-0.40874a0.76638,0.76638 0 0 1 0,-1.22622c0.40874,-0.81748 0.81748,-1.22622 1.63495,-1.22622l71.52923,-0.81748a25.71876,25.71876 0 0 0 20.84566,-15.53206l4.08738,-10.6272c0,-0.40874 0.40874,-0.81748 0,-1.22622a46.58171,46.58171 0 0 0 -89.51372,-4.90486a22.31471,22.31471 0 0 0 -14.71458,-4.08738a21.29266,21.29266 0 0 0 -18.80197,18.80197a22.32783,22.32783 0 0 0 0.40874,7.35729a29.84514,29.84514 0 0 0 -29.02043,29.83791a16.76645,16.76645 0 0 0 0.40874,4.49612a1.3051,1.3051 0 0 0 1.22622,1.22622l131.20504,0c0.81748,0 1.63495,-0.40874 1.63495,-1.22622l1.22622,-4.49612z" class="b"/>
   <path stroke="null" id="svg_3" fill="#faad3f" d="m399.4081,91.18028l-2.04369,0c-0.40874,0 -0.81748,0.40874 -1.22622,0.81748l-2.86117,9.80972a11.67136,11.67136 0 0 0 1.22622,10.6272a12.64751,12.64751 0 0 0 8.58351,4.49612l15.12332,0.81748c0.40874,0 0.81748,0.40874 1.22622,0.40874a0.76638,0.76638 0 0 1 0,1.22622c-0.40874,0.81748 -0.81748,1.22622 -1.63495,1.22622l-15.53206,0.81748a25.71876,25.71876 0 0 0 -20.84566,15.53206l-0.81748,3.67865c-0.40874,0.40874 0,1.22622 0.81748,1.22622l53.95347,0a1.08385,1.08385 0 0 0 1.22622,-1.22622a44.43739,44.43739 0 0 0 1.63495,-10.6272a39.07723,39.07723 0 0 0 -38.83015,-38.83015" class="c"/>
   <path stroke="null" id="svg_4" fill="#404041" d="m443.55185,164.7532a3.67865,3.67865 0 1 1 3.67865,-3.67865a3.66336,3.66336 0 0 1 -3.67865,3.67865m0,-6.53982a2.86117,2.86117 0 1 0 2.86117,2.86117a2.79389,2.79389 0 0 0 -2.86117,-2.86117m1.63495,4.90486l-0.81748,0l-0.81748,-1.22622l-0.81748,0l0,1.22622l-0.81748,0l0,-3.67865l2.04369,0a1.08385,1.08385 0 0 1 1.22622,1.22622c0,0.40874 -0.40874,0.81748 -0.81748,1.22622l0.81748,1.22622zm-1.22622,-2.04369c0.40874,0 0.40874,0 0.40874,-0.40874a0.40032,0.40032 0 0 0 -0.40874,-0.40874l-1.22622,0l0,1.22622l1.22622,0l0,-0.40874zm-366.63838,-3.67865l8.99225,0l0,24.52431l15.53206,0l0,7.76603l-24.52431,0l0,-32.29034zm33.92529,15.9408a16.77835,16.77835 0 0 1 17.57575,-16.75828a16.43129,16.43129 0 0 1 17.16701,16.75828a16.77835,16.77835 0 0 1 -17.57575,16.75828a16.67195,16.67195 0 0 1 -17.16701,-16.75828m25.75052,0a8.40223,8.40223 0 0 0 -8.17477,-8.99225a8.59373,8.59373 0 0 0 0,17.16701c4.90486,0.81748 8.17477,-3.26991 8.17477,-8.17477m20.02818,2.04369l0,-17.98449l8.99225,0l0,17.98449c0,4.49612 2.45243,6.94855 6.13108,6.94855a5.71931,5.71931 0 0 0 6.13108,-6.53982l0,-18.39323l8.99225,0l0,17.98449c0,10.6272 -6.13108,15.12332 -15.12332,15.12332c-9.40098,-0.40874 -15.12332,-4.90486 -15.12332,-15.12332m43.73501,-17.98449l12.67089,0c11.44468,0 18.39323,6.53982 18.39323,15.9408s-6.94855,16.34954 -18.39323,16.34954l-12.26215,0l0,-32.29034l-0.40874,0zm12.67089,24.11557a8.21192,8.21192 0 1 0 0,-16.34954l-3.67865,0l0,16.34954l3.67865,0zm31.06412,-24.11557l25.75052,0l0,7.76603l-16.75828,0l0,5.3136l15.12332,0l0,7.35729l-15.12332,0l0,11.85341l-8.99225,0l0,-32.29034zm38.42141,0l8.99225,0l0,24.52431l15.53206,0l0,7.76603l-24.52431,0l0,-32.29034zm47.8224,-0.40874l8.99225,0l13.89711,32.69908l-9.80972,0l-2.45243,-5.72234l-12.67089,0l-2.45243,5.72234l-9.40098,0l13.89711,-32.69908zm8.17477,20.02818l-3.67865,-8.99225l-3.67865,8.99225l7.35729,0zm26.15926,-19.61945l15.12332,0a13.97142,13.97142 0 0 1 10.6272,3.67865a10.72419,10.72419 0 0 1 -3.67865,17.16701l7.76603,11.44468l-10.21846,0l-6.53982,-9.80972l-4.08738,0l0,9.80972l-8.99225,0l0,-32.29034zm14.71458,15.53206c2.86117,0 4.90486,-1.63495 4.90486,-3.67865c0,-2.45243 -2.04369,-3.67865 -4.90486,-3.67865l-5.72234,0l0,7.76603l5.72234,0l0,-0.40874zm26.568,-15.53206l26.15926,0l0,7.35729l-17.16701,0l0,4.90486l15.53206,0l0,7.35729l-15.53206,0l0,4.90486l17.57575,0l0,7.76603l-26.568,0l0,-32.29034zm-348.65389,20.02818a8.07455,8.07455 0 0 1 -7.35729,4.90486a8.59373,8.59373 0 0 1 0,-17.16701a8.57411,8.57411 0 0 1 7.76603,5.3136l9.40098,0a16.89966,16.89966 0 0 0 -17.16701,-13.48837a17.02436,17.02436 0 0 0 -17.57575,16.75828a16.67195,16.67195 0 0 0 17.16701,16.75828a17.64982,17.64982 0 0 0 17.16701,-13.07963l-9.40098,0z" class="d"/>
  </g>
 </g>
</svg>